<svg width="360" height="727" viewBox="0 0 360 727" fill="none" xmlns="http://www.w3.org/2000/svg">
<g filter="url(#filter0_d_88_346)">
<path d="M179 0L323.5 627.282L294 618.486L252 612.1L213 609.247L179 608.508L134 609.818L94 613.498L58.5 619.715L34.5 627.282L179 0Z" fill="url(#paint0_linear_88_346)" fill-opacity="0.5" shape-rendering="crispEdges"/>
<path d="M338 640.754C338 658.563 266.813 673 179 673C91.1867 673 20 658.563 20 640.754C20 622.945 91.1867 608.508 179 608.508C266.813 608.508 338 622.945 338 640.754Z" fill="url(#paint1_linear_88_346)" fill-opacity="0.5" shape-rendering="crispEdges"/>
<path d="M338 640.754C338 658.563 266.813 673 179 673C91.1867 673 20 658.563 20 640.754C20 622.945 91.1867 608.508 179 608.508C266.813 608.508 338 622.945 338 640.754Z" fill="url(#paint2_linear_88_346)" fill-opacity="0.5" shape-rendering="crispEdges"/>
</g>
<defs>
<filter id="filter0_d_88_346" x="-30" y="-46" width="418" height="773" filterUnits="userSpaceOnUse" color-interpolation-filters="sRGB">
<feFlood flood-opacity="0" result="BackgroundImageFix"/>
<feColorMatrix in="SourceAlpha" type="matrix" values="0 0 0 0 0 0 0 0 0 0 0 0 0 0 0 0 0 0 127 0" result="hardAlpha"/>
<feOffset dy="4"/>
<feGaussianBlur stdDeviation="25"/>
<feComposite in2="hardAlpha" operator="out"/>
<feColorMatrix type="matrix" values="0 0 0 0 0.00784314 0 0 0 0 0.203922 0 0 0 0 0.352941 0 0 0 1 0"/>
<feBlend mode="normal" in2="BackgroundImageFix" result="effect1_dropShadow_88_346"/>
<feBlend mode="normal" in="SourceGraphic" in2="effect1_dropShadow_88_346" result="shape"/>
</filter>
<linearGradient id="paint0_linear_88_346" x1="68.5" y1="294.013" x2="281.001" y2="293.13" gradientUnits="userSpaceOnUse">
<stop stop-color="#02345A"/>
<stop offset="0.5" stop-color="#03518D"/>
<stop offset="1" stop-color="#02345A"/>
</linearGradient>
<linearGradient id="paint1_linear_88_346" x1="68.5" y1="294.013" x2="281.001" y2="293.13" gradientUnits="userSpaceOnUse">
<stop stop-color="#02345A"/>
<stop offset="0.5" stop-color="#03518D"/>
<stop offset="1" stop-color="#02345A"/>
</linearGradient>
<linearGradient id="paint2_linear_88_346" x1="68.5" y1="294.013" x2="281.001" y2="293.13" gradientUnits="userSpaceOnUse">
<stop stop-color="#02345A"/>
<stop offset="0.5" stop-color="#03518D"/>
<stop offset="1" stop-color="#02345A"/>
</linearGradient>
</defs>
</svg>
